<svg xmlns="http://www.w3.org/2000/svg" enable-background="new 0 0 64 64" viewBox="0 0 64 64" id="Launch">
    <polyline fill="#415d68" points="45.34 31.81 45.69 42.86 39.31 55.18 35.05 44.97" class="color415868 svgShape"></polyline>
    <polyline fill="#415d68" points="26.91 22.28 17.7 28.37 11.32 40.7 22.12 38.27" class="color415868 svgShape"></polyline>
    <path fill="#5bc9f2" d="M22.24,43.78l8.21,4.25c5.05-2.37,11.76-9.23,16.2-18.83c6.08-13.16,8.3-26.11,3.22-28.74
    c-5.07-2.63-14.31,6.32-21.6,19.22C23.05,28.9,21.26,38.3,22.24,43.78z" class="colorf2705b svgShape"></path>
    <path fill="#33525e" d="M38.43,5.64c3.46,4.43,8.01,6.8,13.7,7.07c1.1-6.13,0.54-10.79-2.3-12.25C46.98-1.02,42.82,1.16,38.43,5.64z" class="color334a5e svgShape"></path>
    <path fill="#5cd3ff" d="M17.79,51.35c-1.43,2.76-0.05,11.18-0.05,11.18s7.67-3.74,9.1-6.5c1.43-2.76,0.56-6.04-1.94-7.33
    C22.4,47.41,19.22,48.6,17.79,51.35z" class="colorffd15c svgShape"></path>
    <path fill="#4bc7f6" d="M17.12,64c0,0,7.68-3.74,9.11-6.5c0.21-0.4,0.37-0.81,0.48-1.23C25,59,17.75,62.53,17.75,62.53
    s-1.11-6.79-0.3-10.17c-0.1,0.15-0.19,0.3-0.26,0.46C15.75,55.58,17.12,64,17.12,64z" class="colorf6b44b svgShape"></path>
    <path fill="#5cd3ff" d="M24.05,51.81c0.53,0,1.04-0.29,1.3-0.79l11.76-22.72c0.37-0.72,0.09-1.6-0.63-1.98
        c-0.72-0.37-1.6-0.09-1.98,0.63L22.75,49.67c-0.37,0.72-0.09,1.6,0.63,1.98C23.6,51.75,23.83,51.81,24.05,51.81z" class="colorffd15c svgShape"></path>
    <path fill="#ffffff" d="M34.95,18.38c-1.26,2.43-0.31,5.43,2.13,6.69c2.43,1.26,5.43,0.31,6.69-2.13c1.26-2.43,0.31-5.43-2.13-6.69
    C39.21,14.99,36.21,15.95,34.95,18.38z" class="colorffffff svgShape"></path>
    <path fill="#1989b3" d="M35.89,18.87c-0.99,1.91-0.24,4.27,1.67,5.26c1.91,0.99,4.27,0.24,5.26-1.67c0.99-1.91,0.24-4.27-1.67-5.26
    C39.24,16.2,36.88,16.95,35.89,18.87z" class="color11b2e5 svgShape"></path>
</svg>