<svg xmlns="http://www.w3.org/2000/svg" enable-background="new 0 0 128 128" viewBox="0 0 128 128" id="target">
    <path fill="#2e79be" d="M56.9,71C56.9,71,56.9,71.1,56.9,71C56.9,71.1,56.9,71.1,56.9,71c0.6,0.6,1.6,1.1,2.8,0.9
    c0.2,0,45.2-12.7,48.9-13.7c0.2-0.1,0.4-0.1,0.5-0.2c1.2-0.7,1.6-1.9,1.6-2.8c0-0.8-0.4-1.9-1.4-2.5C109.1,52.5,86,41.9,86,41.9
    l0,0l0,0c0,0-10.6-23.1-10.7-23.3c-0.6-0.9-1.6-1.3-2.5-1.4c-1,0-2.1,0.4-2.8,1.6c-0.1,0.2-0.2,0.3-0.2,0.5
    c-1,3.7-13.7,48.7-13.7,48.9C55.8,69.4,56.3,70.4,56.9,71z"></path>
    <path fill="#2e79be" d="M96 36.4l.3-.3c.1-.1.1-.1.2-.2.1-.1.1-.1.2-.2l.3-.3c.1-.1.1-.1.2-.2.1-.1.1-.1.2-.2l.3-.3c.1-.1.1-.1.2-.2.1-.1.1-.1.2-.2l.3-.3c.1-.1.1-.1.2-.2.1-.1.1-.1.2-.2l.3-.3c1.2-1.2 1.2-3.2 0-4.4-1.2-1.2-3.2-1.2-4.4 0l-.3.3c-.1.1-.1.1-.2.2-.1.1-.1.1-.2.2l-.3.3c-.1.1-.1.1-.2.2-.1.1-.1.1-.2.2L93 30.6c-.1.1-.1.1-.2.2-.1.1-.1.1-.2.2l-.3.3c-.1.1-.1.1-.2.2-.1.1-.1.1-.2.2L91.6 32c-1.2 1.2-1.2 3.2 0 4.4C92.8 37.6 94.8 37.6 96 36.4zM107.2 16.4l-.3.3c-.1.1-.1.1-.2.2-.1.1-.1.1-.2.2l-.3.3c-.1.1-.1.1-.2.2-.1.1-.1.1-.2.2l-.3.3c-.1.1-.1.1-.2.2-.1.1-.1.1-.2.2l-.3.3c-.1.1-.1.1-.2.2-.1.1-.1.1-.2.2l-.3.3c-1.2 1.2-1.2 3.2 0 4.4 1.2 1.2 3.2 1.2 4.4 0l.3-.3c.1-.1.1-.1.2-.2.1-.1.1-.1.2-.2l.3-.3c.1-.1.1-.1.2-.2.1-.1.1-.1.2-.2l.3-.3c.1-.1.1-.1.2-.2.1-.1.1-.1.2-.2l.3-.3c.1-.1.1-.1.2-.2.1-.1.1-.1.2-.2l.3-.3c1.2-1.2 1.2-3.2 0-4.4C110.4 15.2 108.4 15.2 107.2 16.4zM124.1 3.9c-1.2-1.2-3.2-1.2-4.4 0l-.3.3c-.1.1-.1.1-.2.2-.1.1-.1.1-.2.2l-.3.3c-.1.1-.1.1-.2.2-.1.1-.1.1-.2.2L118 5.6c-.1.1-.1.1-.2.2-.1.1-.1.1-.2.2l-.3.3c-.1.1-.1.1-.2.2-.1.1-.1.1-.2.2L116.6 7c-1.2 1.2-1.2 3.2 0 4.4 1.2 1.2 3.2 1.2 4.4 0l.3-.3c.1-.1.1-.1.2-.2.1-.1.1-.1.2-.2l.3-.3c.1-.1.1-.1.2-.2.1-.1.1-.1.2-.2l.3-.3c.1-.1.1-.1.2-.2.1-.1.1-.1.2-.2l.3-.3c.1-.1.1-.1.2-.2.1-.1.1-.1.2-.2l.3-.3C125.3 7.1 125.3 5.1 124.1 3.9z"></path>
    <path fill="#2d3e50" d="M110.3,64.4l-1.2,0.3c-4.5,1.3-8.6,2.4-12.3,3.5c0,0.8,0.1,1.6,0.1,2.5c0,21.8-17.7,39.6-39.6,39.6
    c-21.8,0-39.6-17.7-39.6-39.6s17.7-39.6,39.6-39.6c0.8,0,1.6,0,2.4,0.1c1.1-4.1,2.4-8.6,3.8-13.6c0.1-0.3,0.2-0.6,0.3-0.8
    c-2.1-0.3-4.3-0.4-6.5-0.4C27.4,16.4,3,40.8,3,70.7S27.4,125,57.3,125c30,0,54.3-24.4,54.3-54.3c0-2.2-0.1-4.4-0.4-6.6
    C111,64.3,110.7,64.4,110.3,64.4z"></path>
    <path fill="#2d3e50" d="M51.1,61.8c0.9-3.1,2.3-8.3,4.7-16.7c-13.4,0.8-24.1,12-24.1,25.6c0,14.1,11.5,25.7,25.7,25.7
    c13.7,0,24.9-10.7,25.6-24.2c-8.3,2.3-13.5,3.8-16.6,4.7c-2,2.9-5.3,4.8-9,4.8c-6,0-10.9-4.9-10.9-10.9
    C46.4,67,48.3,63.8,51.1,61.8z"></path>
</svg>