<svg xmlns="http://www.w3.org/2000/svg" viewBox="0 0 907.781 1010" id="Team">
    <g fill="#2d3e50" class="color000000 svgShape">
        <g fill="#545454" class="color545454 svgShape">
            <path d="M685.05 295.629c9.73 3.273 20.085 5.425 30.934 5.425 54.114 0 98.051-43.914 98.051-98.005 0-54.047-43.937-98.028-98.05-98.028-54.114 0-97.983 43.981-97.983 98.028 0 8.563 1.457 16.768 3.475 24.658 28.11 14.37 50.302 38.108 63.574 67.922zM808.184 322.44H694.15a166.175 166.175 0 014.753 39.452v288.794c0 39.16-31.653 70.903-70.455 70.903-7.151 0-14.055-1.233-20.6-3.25V1010h98.072V727.014h20.062V1010h98.185V454.72h11.073v233.334c0 20.197 16.365 36.516 36.54 36.516 20.174 0 36.001-16.319 36.001-36.516V429.299c0-59-40.619-106.86-99.597-106.86z" fill="#2d3e50" class="color000000 svgShape"></path>
        </g>
        <g fill="#2d3e50" class="color545454 svgShape">
            <path d="M191.818 301.054c11.186 0 21.677-2.241 31.742-5.649 13.315-28.782 35.171-52.096 62.386-66.577 2.286-8.272 3.9-16.813 3.9-25.779 0-54.047-43.891-98.028-98.028-98.028-54.135 0-98.004 43.981-98.004 98.028 0 54.09 43.87 98.005 98.004 98.005zM208.878 650.686V361.892c0-13.718 1.882-26.921 5.043-39.452H99.687C40.619 322.44 0 370.299 0 429.299v258.755c0 20.197 15.849 36.516 36.045 36.516 20.154 0 36.495-16.319 36.495-36.516V454.719H83.66V1010h98.162V727.014h20.085V1010h98.095V718.294c-6.636 2.039-13.472 3.295-20.691 3.295-38.803 0-70.432-31.742-70.432-70.904z" fill="#2d3e50" class="color000000 svgShape"></path>
        </g>
        <path fill="#2e79be" d="M454.675 218.786c60.367 0 109.37-49.025 109.37-109.37C564.045 49.024 515.042 0 454.675 0 394.24 0 345.238 49.024 345.238 109.416c0 60.345 49.002 109.37 109.437 109.37zM628.448 691.482c22.574 0 40.305-18.292 40.305-40.796V361.891c0-13.83-2.129-27.056-5.897-39.452-14.232-46.448-53.35-79.826-105.311-79.826h-42.008l-4.844 4.102-47.432 40.686 34.926 93.567-46.65 101.3-41.852-99.687 31.832-95.18-44.677-40.55-4.662-4.238h-40.395c-52.006 0-92.087 33.378-106.636 79.826a131.13 131.13 0 00-6.075 39.452v288.793c0 22.505 17.755 40.797 40.238 40.797 7.554 0 14.616-2.24 20.69-5.827 4.82-2.915 9.102-6.658 12.352-11.164 4.82-6.747 7.756-14.929 7.756-23.806v-260.39h13.831V1010H443.4V694.195h22.35V1010h109.616V720.535v-330.24h12.352v260.39c0 8.833 2.96 16.992 7.78 23.761 3.248 4.53 7.508 8.272 12.35 11.21 6.097 3.585 13.048 5.826 20.601 5.826z" class="colordab466 svgShape"></path>
    </g>
</svg>